<svg width="48" height="48" viewBox="0 0 48 48" fill="none" xmlns="http://www.w3.org/2000/svg">
<path d="M0.588197 29.5309C0.481397 29.0757 1.02379 28.7889 1.35446 29.1196L18.8804 46.6455C19.2111 46.9762 18.9243 47.5186 18.4691 47.4118C9.62472 45.337 2.66294 38.3753 0.588197 29.5309ZM0.000907846 22.5068C-0.00756115 22.6427 0.0435665 22.7755 0.139902 22.8718L25.1281 47.8601C25.2245 47.9564 25.3572 48.0077 25.4932 47.9991C26.6304 47.9282 27.7463 47.7783 28.8352 47.5546C29.2021 47.4793 29.3296 47.0284 29.0647 46.7635L1.23646 18.9353C0.971563 18.6704 0.520694 18.7978 0.445332 19.1648C0.221693 20.2537 0.0717389 21.3695 0.000907846 22.5068ZM2.02125 14.2586C1.94133 14.438 1.98204 14.6477 2.12092 14.7866L33.2134 45.8791C33.3523 46.018 33.562 46.0587 33.7414 45.9787C34.5987 45.5969 35.4296 45.1663 36.2304 44.6904C36.4955 44.533 36.5364 44.1688 36.3184 43.9509L4.04912 11.6816C3.83115 11.4636 3.46702 11.5045 3.30956 11.7695C2.83373 12.5704 2.40312 13.4013 2.02125 14.2586ZM6.07618 8.67552C5.89853 8.49787 5.88754 8.21294 6.05491 8.02555C10.4542 3.10047 16.8535 0 23.9769 0C37.2445 0 48 10.7555 48 24.0231C48 31.1465 44.8995 37.5458 39.9744 41.9451C39.7871 42.1124 39.5021 42.1015 39.3244 41.9238L6.07618 8.67552Z" fill="#F2F2F2"/>
</svg>
